<?xml version="1.0" standalone="no"?>
<!DOCTYPE svg PUBLIC "-//W3C//DTD SVG 20010904//EN"
 "http://www.w3.org/TR/2001/REC-SVG-20010904/DTD/svg10.dtd">
<svg version="1.0" xmlns="http://www.w3.org/2000/svg"
 width="384.000000pt" height="384.000000pt" viewBox="0 0 384.000000 384.000000"
 preserveAspectRatio="xMidYMid meet">
<metadata>
Created by potrace 1.11, written by Peter Selinger 2001-2013
</metadata>
<g transform="translate(0.000000,384.000000) scale(0.100000,-0.100000)"
fill="#000000" stroke="none">
<path d="M1656 2974 c-9 -22 -8 -26 6 -18 7 5 8 3 3 -6 -4 -7 -10 -27 -12 -44
-2 -17 -8 -33 -13 -34 -6 -2 -8 -7 -5 -12 3 -4 -2 -13 -10 -20 -8 -7 -15 -17
-15 -22 0 -10 -9 -21 -62 -77 -20 -22 -38 -38 -40 -36 -2 2 -4 -5 -4 -15 0
-11 6 -20 14 -20 7 0 11 4 7 9 -3 5 4 13 16 16 11 4 18 9 16 12 -3 2 7 17 22
31 16 15 33 37 40 49 6 13 21 28 32 34 17 9 20 8 13 -3 -13 -19 -12 -62 0 -70
8 -5 8 -8 1 -8 -6 0 -11 -17 -10 -37 0 -38 -13 -65 -28 -56 -4 2 -10 -3 -13
-11 -3 -9 -12 -16 -20 -16 -8 0 -14 -4 -14 -9 0 -9 -40 -27 -48 -22 -4 3 -32
-26 -32 -33 0 -3 7 -6 15 -6 8 0 15 4 15 8 0 4 10 9 22 9 13 1 24 7 26 13 2 5
9 10 15 10 6 0 23 11 37 25 l26 25 -1 -136 c0 -132 -1 -137 -22 -145 -13 -5
-23 -5 -23 -1 0 4 -13 7 -30 7 -16 1 -30 -3 -30 -8 0 -5 -6 -4 -14 2 -12 10
-17 8 -26 -9 -18 -33 0 -43 78 -42 48 0 69 -3 69 -12 0 -7 -5 -13 -11 -14 -62
-7 -76 -7 -76 1 0 4 -6 5 -12 0 -7 -4 -22 -6 -34 -5 -16 2 -20 -2 -19 -20 1
-13 -1 -30 -6 -39 -5 -9 -5 -20 -1 -24 4 -4 7 -21 7 -38 l0 -32 86 -1 c47 0
91 -4 97 -8 6 -3 13 -2 16 3 7 10 78 7 95 -4 6 -3 11 -2 11 3 0 10 103 8 119
-3 5 -3 12 -2 15 3 6 10 127 9 143 -1 7 -4 14 -4 16 1 7 9 178 9 194 -1 6 -4
14 -3 17 1 6 10 46 10 63 -1 6 -4 14 -3 17 1 6 10 79 7 95 -3 5 -3 12 -1 15 4
7 10 78 7 95 -4 6 -3 11 -2 11 2 0 11 150 10 167 0 6 -4 14 -3 17 1 4 7 61 9
61 2 0 -5 46 -6 50 0 5 8 128 6 142 -3 7 -4 14 -4 17 1 6 10 208 8 224 -2 6
-3 13 -2 16 3 7 10 78 7 95 -4 6 -3 11 -2 11 3 0 10 182 8 198 -2 6 -3 13 -2
16 3 4 5 25 8 49 6 76 -7 82 -2 81 63 0 69 -9 99 -29 99 -8 0 -15 -3 -15 -6 0
-5 -56 -6 -70 -1 -3 1 -20 2 -37 2 -18 0 -33 4 -33 8 0 14 31 20 105 20 78 0
100 14 69 45 -18 18 -28 20 -18 3 5 -8 2 -9 -12 -4 -31 12 -85 15 -78 4 4 -6
-3 -5 -15 1 -13 7 -21 8 -21 2 0 -6 -6 -8 -13 -6 -8 4 -12 37 -12 119 0 63 3
112 7 110 4 -3 5 2 2 10 -3 9 -1 16 5 16 6 0 11 -4 11 -10 0 -5 7 -10 15 -10
8 0 15 -3 15 -8 0 -8 81 -47 93 -44 4 1 7 -3 7 -10 0 -9 3 -9 11 -1 13 13 3
36 -12 28 -5 -4 -9 -2 -9 2 0 9 -59 37 -72 34 -5 0 -8 3 -8 9 0 5 -7 10 -15
10 -8 0 -15 4 -15 9 0 5 -8 12 -18 15 -15 5 -18 18 -17 81 0 41 3 75 7 75 5 0
8 -3 8 -7 1 -9 65 -78 121 -130 30 -29 35 -30 36 -14 1 11 -5 22 -13 25 -9 3
-12 11 -9 16 4 6 2 9 -3 8 -6 -2 -32 20 -59 49 -84 90 -89 101 -89 186 l1 68
-30 -3 c-16 -2 -31 -9 -31 -15 -1 -7 -2 -24 -3 -38 -1 -26 -1 -26 -91 -24
l-90 1 0 39 c0 37 -2 39 -30 39 -16 0 -30 -3 -31 -7 -1 -5 -2 -24 -2 -43 -1
-19 -7 -41 -14 -48 -7 -7 -13 -20 -13 -28 0 -8 -4 -14 -10 -14 -5 0 -10 -5
-10 -11 0 -6 -12 -27 -27 -47 -31 -41 -103 -116 -103 -107 0 3 -10 -4 -23 -17
-25 -26 -54 -46 -79 -54 -10 -4 -18 -11 -18 -16 0 -6 -6 -8 -14 -5 -8 3 -17
-1 -20 -9 -3 -9 -10 -12 -16 -9 -5 3 -10 2 -10 -3 0 -5 -6 -9 -12 -9 -21 -1
-43 -7 -48 -15 -3 -3 -19 -8 -35 -10 -17 -2 -33 -7 -36 -12 -4 -4 -21 -9 -38
-10 -17 0 -31 -4 -31 -9 0 -4 -5 -5 -10 -2 -6 4 -17 2 -25 -5 -7 -6 -15 -7
-18 -3 -6 10 -59 9 -75 -1 -7 -4 -12 -2 -12 5 0 6 -8 9 -20 6 -11 -3 -20 -2
-20 2 0 4 -18 7 -39 7 -22 -1 -37 2 -35 6 3 4 -11 10 -31 14 -19 3 -38 10 -40
15 -3 4 -12 6 -20 2 -8 -3 -15 0 -15 7 0 6 -4 9 -9 5 -5 -3 -13 0 -16 6 -4 5
-14 8 -23 4 -9 -3 -13 -3 -9 1 4 4 -10 16 -31 25 -20 10 -49 29 -64 42 -15 14
-29 23 -31 21 -2 -3 -22 15 -45 40 -22 24 -43 41 -46 38 -3 -3 -6 1 -6 8 0 7
-8 20 -17 29 -20 18 -52 67 -60 94 -3 9 -9 17 -12 17 -8 0 -9 4 -14 60 -3 31
-7 35 -33 35 -23 0 -28 -4 -26 -18 2 -10 -3 -26 -10 -35 -11 -13 -11 -15 2 -7
12 6 12 5 4 -4 -8 -9 -35 -12 -83 -9 -41 2 -73 -1 -75 -7 -3 -6 -9 -4 -15 5
-5 8 -8 17 -5 21 2 4 0 10 -5 13 -5 3 -7 15 -4 26 4 17 0 20 -25 20 -18 0 -32
-6 -36 -16z m342 -161 c36 -59 182 -208 182 -186 0 3 8 -4 19 -15 10 -12 21
-19 25 -15 3 3 6 0 6 -7 0 -7 3 -10 6 -7 4 4 21 -4 38 -16 17 -12 32 -21 33
-20 3 3 14 -1 58 -18 17 -7 35 -11 41 -11 6 1 11 -4 11 -12 0 -7 -7 -12 -16
-11 -9 2 -16 4 -16 5 0 1 -10 3 -23 6 -17 3 -21 0 -16 -8 4 -7 -1 -6 -12 3
-10 9 -25 14 -33 11 -8 -2 -11 0 -8 5 3 5 -4 9 -16 8 -12 -1 -43 6 -69 15 -27
10 -48 15 -48 12 0 -4 -4 -2 -8 3 -4 6 -18 16 -31 23 -19 11 -22 11 -15 0 4
-7 -4 -4 -17 7 -13 12 -36 27 -51 35 -16 7 -28 17 -28 22 0 4 -6 8 -14 8 -8 0
-18 10 -22 23 -6 19 -13 187 -8 187 1 0 15 -21 32 -47z m1268 -43 c-1 -102 -5
-109 -88 -163 -16 -10 -28 -14 -28 -10 0 5 -5 0 -11 -9 -5 -10 -18 -18 -27
-18 -10 0 -23 -5 -30 -12 -7 -7 -12 -8 -12 -4 0 5 -6 4 -13 -2 -7 -6 -28 -14
-47 -17 -19 -3 -37 -9 -40 -13 -3 -4 -20 -8 -39 -10 -19 -1 -41 -8 -50 -15
-12 -10 -13 -9 -6 2 5 9 4 12 -2 8 -19 -12 -83 -16 -83 -7 0 9 30 15 53 11 4
0 7 3 7 9 0 5 6 10 14 10 7 0 31 8 52 17 22 9 42 16 47 15 4 -1 7 3 7 9 0 5 4
8 9 5 5 -3 11 1 15 9 3 8 12 15 21 15 8 0 15 5 15 10 0 5 3 9 8 8 4 -2 20 8
35 22 16 14 30 24 33 23 6 -4 44 35 44 45 0 5 11 15 25 22 13 7 22 17 19 22
-3 4 2 11 10 14 9 3 14 10 11 14 -3 4 2 11 11 14 8 3 13 10 9 15 -3 6 3 14 12
20 10 6 14 11 10 11 -7 0 0 20 7 20 1 0 2 -40 2 -90z m-1376 68 c18 3 23 -39
6 -50 -7 -5 -7 -8 2 -8 6 0 12 -8 12 -17 0 -14 -5 -12 -26 10 -14 15 -22 32
-19 37 3 6 1 10 -4 10 -6 0 -11 7 -11 16 0 10 4 12 13 7 6 -4 19 -6 27 -5z
m-100 -5 c0 -6 -62 -93 -67 -93 -3 0 -3 11 -1 25 3 14 1 25 -5 25 -8 0 -7 4 0
11 6 6 9 18 6 26 -4 10 3 13 31 11 20 -1 36 -3 36 -5z m1587 -18 c-7 -14 -16
-25 -20 -25 -5 0 -6 -3 -4 -7 3 -5 -1 -13 -8 -20 -10 -10 -14 -9 -19 2 -3 8 0
15 7 15 8 0 8 3 2 8 -25 17 0 52 37 52 14 0 14 -4 5 -25z m118 19 c18 -3 20
-11 21 -64 0 -33 -2 -60 -4 -60 -6 0 -43 41 -68 76 -33 46 -17 61 51 48z
m-1665 -19 c0 -8 9 -24 20 -35 11 -11 20 -26 20 -34 0 -8 8 -21 18 -28 12 -9
17 -25 16 -48 -2 -62 -3 -63 -29 -58 -14 3 -25 2 -25 -1 0 -3 -28 -4 -62 -1
-57 5 -62 7 -69 32 -4 16 -3 30 2 34 5 3 7 9 5 13 -3 4 5 19 17 32 12 13 21
27 20 31 -2 5 0 8 5 8 4 0 16 16 26 35 20 37 36 46 36 20z m1600 -49 c0 -6 20
-33 45 -59 29 -33 42 -55 40 -69 -3 -11 -6 -22 -7 -24 -4 -3 -119 -6 -133 -4
-5 1 -17 2 -27 1 -12 -2 -17 9 -20 48 -1 27 0 47 3 45 4 -2 12 10 19 26 7 16
16 27 21 24 8 -5 13 9 10 29 0 4 4 7 10 7 5 0 7 6 3 13 -4 6 2 3 14 -7 12 -11
22 -24 22 -30z m-1395 -174 c81 -46 165 -81 203 -84 6 -1 12 -6 12 -12 0 -6 5
-4 10 4 5 8 10 10 10 4 0 -7 9 -14 20 -17 12 -3 18 -1 14 5 -4 5 4 4 17 -3 13
-6 48 -14 79 -16 30 -2 63 -5 73 -7 11 -3 15 0 10 7 -4 7 0 7 9 -1 12 -10 18
-10 23 -1 6 8 10 7 16 -2 6 -9 12 -10 17 -4 4 6 21 10 37 10 17 0 33 -4 37
-10 5 -6 8 -5 8 3 0 7 5 10 10 7 9 -6 116 -10 130 -5 3 1 30 3 60 4 30 2 62 5
70 9 8 3 31 8 51 10 21 3 50 11 66 19 16 8 37 14 46 12 9 -1 17 3 17 9 0 5 3
8 6 4 3 -3 27 7 52 22 26 15 55 30 65 34 9 3 17 11 17 17 0 6 5 8 10 5 6 -3
10 -2 10 3 0 6 6 12 13 15 11 4 14 -21 13 -133 l0 -137 -62 -1 c-35 0 -67 -3
-71 -5 -5 -3 -15 -2 -23 3 -8 5 -21 5 -29 1 -9 -5 -25 -5 -36 -1 -11 4 -34 4
-51 0 -18 -4 -38 -4 -45 1 -7 4 -22 3 -32 -3 -15 -7 -18 -7 -12 2 6 9 3 9 -13
1 -12 -6 -23 -7 -26 -2 -6 8 -65 5 -74 -4 -3 -3 -11 0 -19 6 -10 9 -13 8 -13
-2 0 -10 -3 -10 -11 -2 -8 8 -20 8 -35 3 -13 -5 -24 -6 -24 -2 0 9 -67 9 -76
0 -3 -4 -16 -3 -28 1 -11 4 -32 6 -46 4 -60 -7 -90 -8 -90 -2 0 8 -32 5 -47
-4 -6 -4 -14 -3 -17 2 -6 8 -65 6 -74 -4 -3 -3 -11 0 -19 6 -10 9 -13 8 -13 0
0 -7 -5 -9 -12 -4 -16 9 -34 10 -74 2 -18 -4 -38 -3 -45 2 -7 4 -20 4 -28 0
-9 -5 -25 -5 -36 -1 -11 4 -34 4 -51 0 -18 -4 -39 -3 -50 4 -18 10 -20 22 -18
136 2 150 2 149 17 130 7 -8 30 -25 52 -38z m-242 -56 c15 -2 29 0 33 5 3 5
10 6 16 3 6 -4 20 -8 32 -9 11 -1 23 -3 26 -4 4 0 6 -39 6 -86 0 -65 -3 -85
-13 -81 -7 3 -15 1 -18 -5 -4 -5 -12 -6 -18 -2 -7 4 -34 6 -62 5 -64 -2 -81 3
-81 28 0 11 3 20 6 20 3 0 5 12 4 28 -1 15 -3 27 -4 27 -7 0 -5 47 2 51 4 3 5
10 2 16 -4 6 -2 8 4 4 6 -3 13 -2 17 4 4 6 10 8 14 6 4 -3 19 -7 34 -10z
m1703 -3 c17 2 19 -5 19 -83 0 -69 -3 -85 -15 -85 -8 0 -18 -4 -22 -10 -5 -6
-8 -6 -8 2 0 8 -9 9 -30 3 -16 -5 -30 -5 -30 -1 0 4 -17 6 -39 4 -34 -3 -39
-1 -43 20 -3 13 -1 34 3 45 6 15 4 22 -4 22 -8 0 -6 4 3 10 8 5 10 10 5 10 -6
0 -11 9 -11 20 0 11 4 20 8 20 4 0 7 6 6 13 -2 8 11 12 39 13 24 0 46 3 49 7
3 3 16 2 28 -3 13 -4 31 -8 42 -7z m-1051 -33 c3 -5 1 -10 -4 -10 -6 0 -11 5
-11 10 0 6 2 10 4 10 3 0 8 -4 11 -10z m-598 -192 c56 1 78 -12 41 -24 -31
-10 -68 -11 -68 -2 0 4 -12 3 -27 -3 -30 -11 -30 -11 -55 2 -27 15 -22 32 7
25 15 -4 25 -2 25 4 0 6 5 8 12 4 7 -5 36 -7 65 -6z m748 -1 c212 -1 385 1
385 5 0 4 7 5 15 2 23 -9 145 -10 145 -1 0 5 5 5 11 2 17 -11 59 -13 59 -3 0
5 6 6 13 1 6 -4 19 -6 28 -5 9 2 16 -4 16 -13 0 -8 -10 -15 -21 -16 -83 -4
-133 -3 -148 4 -10 4 -18 4 -18 0 0 -10 -133 -9 -149 1 -6 4 -11 4 -11 -1 0
-4 -32 -8 -70 -8 -39 0 -70 3 -70 6 0 3 -7 6 -15 6 -8 0 -15 -3 -15 -6 0 -8
-58 -6 -66 2 -3 3 -12 3 -19 1 -23 -9 -135 -10 -135 -1 0 5 -5 5 -12 1 -15
-10 -69 -11 -74 -2 -3 4 -11 5 -18 2 -20 -8 -126 -11 -126 -3 0 3 -7 6 -15 6
-8 0 -15 -3 -15 -6 0 -8 -125 -5 -139 3 -6 4 -11 3 -11 -1 0 -10 -53 -9 -69 2
-6 3 -11 2 -11 -2 0 -7 -20 -8 -62 -4 -5 1 -8 8 -8 17 0 13 15 15 105 12 58
-2 105 0 105 4 0 4 7 5 15 2 8 -3 188 -7 400 -7z m902 2 c17 2 21 -1 17 -13
-3 -9 -18 -17 -33 -17 -14 -1 -33 -2 -41 -3 -8 -1 -21 3 -27 8 -8 5 -13 4 -13
-2 0 -7 -10 -8 -29 -2 -16 4 -32 6 -35 2 -3 -3 -6 2 -6 11 0 14 10 16 60 14
33 -1 60 2 60 6 0 5 6 5 13 0 6 -4 22 -6 34 -4z"/>
<path d="M364 2968 c-3 -4 -12 -4 -20 -1 -9 3 -20 0 -25 -8 -6 -10 -9 -11 -9
-1 0 19 -109 -45 -147 -87 -18 -19 -33 -39 -33 -43 0 -5 -8 -20 -17 -34 -9
-14 -18 -38 -20 -52 -2 -15 -5 -260 -5 -544 -1 -399 2 -521 11 -532 7 -8 9
-21 5 -28 -4 -7 -4 -10 0 -6 5 4 18 -4 30 -17 33 -35 99 -52 144 -35 43 15 84
45 75 54 -3 3 -1 6 5 6 22 0 26 76 27 520 1 424 2 457 19 483 21 31 11 29 206
29 155 0 200 -3 200 -12 0 -4 16 -12 35 -20 34 -13 85 -61 85 -79 0 -5 4 -11
10 -13 5 -1 11 -15 12 -30 1 -16 5 -28 9 -28 9 0 8 -99 -1 -105 -5 -3 -7 -14
-5 -25 2 -11 0 -20 -6 -20 -5 0 -9 -6 -9 -13 0 -7 -10 -24 -22 -37 -13 -14
-22 -29 -20 -35 2 -5 1 -7 -3 -3 -4 4 -16 -2 -28 -12 -11 -11 -23 -17 -27 -15
-5 3 -11 -2 -14 -11 -3 -8 -10 -13 -15 -9 -5 3 -13 0 -16 -6 -4 -5 -13 -8 -20
-5 -8 3 -16 0 -19 -7 -3 -9 -5 -8 -5 1 -1 7 -6 10 -12 7 -6 -4 -45 -8 -87 -9
-86 -1 -136 -19 -151 -53 -6 -13 -15 -23 -21 -23 -6 0 -9 -4 -5 -9 3 -5 2 -12
-3 -15 -15 -9 -6 -84 14 -121 19 -37 94 -82 114 -70 5 3 10 1 10 -5 0 -6 5 -8
12 -4 16 10 108 11 108 1 0 -5 5 -5 12 -1 16 10 108 11 108 0 0 -5 7 -3 15 4
8 7 15 8 15 3 0 -5 10 -9 23 -9 38 -1 87 -16 81 -25 -3 -5 2 -9 11 -9 19 0
118 -98 110 -110 -3 -5 -1 -11 5 -15 6 -4 8 -10 5 -15 -3 -5 -1 -12 5 -15 12
-8 11 -72 -3 -99 -6 -12 -6 -16 2 -12 16 10 -28 -89 -50 -113 -11 -12 -17 -21
-14 -21 3 0 -13 -18 -37 -39 -23 -22 -46 -37 -50 -35 -4 3 -8 1 -8 -4 0 -5 -6
-10 -12 -11 -40 -7 -252 -15 -282 -10 -21 3 -38 1 -41 -5 -3 -7 -7 -7 -11 2
-3 6 -11 9 -17 5 -7 -4 -23 -9 -36 -11 -13 -2 -30 -9 -37 -17 -8 -7 -18 -15
-23 -17 -24 -8 -40 -79 -32 -144 2 -17 59 -74 85 -83 12 -5 43 -8 69 -8 26 1
47 -1 47 -5 0 -4 7 -5 14 -2 23 9 146 10 146 2 0 -4 11 -3 25 2 18 7 25 6 25
-3 0 -8 3 -8 8 -2 4 7 145 10 407 10 291 -1 410 2 437 11 20 7 38 10 41 8 2
-2 10 2 17 11 7 8 19 15 26 15 8 0 14 5 14 12 0 6 3 9 6 6 7 -8 44 28 44 43 0
5 5 7 10 4 6 -3 10 1 10 9 0 9 4 16 9 16 5 0 15 15 22 33 6 17 18 47 24 65 7
17 9 32 4 32 -5 0 -4 11 1 25 7 18 6 25 -3 25 -7 0 -8 3 -2 8 6 4 10 55 10
117 0 62 -4 113 -10 117 -7 5 -7 8 0 8 12 0 13 219 1 238 -4 7 -4 12 1 12 8 0
10 146 2 154 -3 3 -68 6 -145 8 -127 3 -143 1 -160 -16 -10 -11 -13 -15 -5
-11 11 6 13 2 9 -19 -3 -14 -1 -29 4 -32 5 -3 5 -11 -1 -18 -11 -13 -10 -34 2
-53 5 -7 5 -13 0 -13 -10 0 -10 -211 1 -228 4 -7 3 -12 -1 -12 -5 0 -8 -60 -7
-132 1 -123 -5 -169 -24 -167 -4 1 -9 0 -12 -1 -3 -1 -63 -2 -134 -2 -91 -1
-131 2 -134 10 -2 7 0 12 5 12 5 0 9 10 10 22 1 11 6 24 10 27 5 3 15 26 22
51 35 119 34 253 -4 343 -8 20 -12 37 -8 37 5 0 3 4 -2 8 -6 4 -17 21 -25 37
-8 17 -17 32 -20 35 -3 3 -21 26 -40 52 -19 26 -39 48 -43 48 -5 0 -21 12 -37
28 -15 15 -35 32 -45 37 -16 10 -16 13 5 53 12 23 26 45 31 48 5 3 7 10 4 15
-4 5 -1 9 5 9 6 0 9 4 6 8 -3 5 1 19 8 33 7 13 13 27 14 32 1 4 2 8 3 10 12
36 18 207 7 207 -5 0 -7 9 -3 19 3 11 1 22 -5 26 -6 3 -8 11 -4 16 3 5 0 17
-8 26 -8 11 -9 14 -1 10 11 -7 -17 52 -58 123 -18 32 -113 130 -142 146 -12 7
-33 19 -47 26 -14 7 -28 17 -31 22 -4 5 -12 5 -18 2 -6 -4 -11 -2 -11 3 0 6
-3 10 -7 10 -5 -1 -10 0 -13 1 -3 1 -12 3 -20 5 -8 2 -26 7 -40 10 -14 3 -45
8 -70 11 -25 2 -55 6 -67 9 -13 3 -23 2 -23 -3 0 -5 -22 -6 -50 -2 -29 4 -54
2 -60 -4 -6 -6 -10 -6 -10 0 0 10 -200 13 -206 2z"/>
<path d="M3297 2048 c-22 -8 -22 -10 -21 -196 0 -104 4 -194 8 -200 4 -7 4
-12 -1 -12 -4 0 -7 -105 -5 -232 1 -128 2 -242 2 -253 0 -11 2 -30 5 -42 7
-31 63 -47 112 -31 13 4 25 3 29 -3 4 -8 9 -7 15 2 5 8 9 10 9 4 0 -5 11 -10
25 -10 14 0 25 2 25 5 0 3 12 5 27 4 58 -2 57 -13 57 488 1 253 -2 464 -5 469
-8 13 -159 17 -159 4 0 -7 -3 -7 -8 0 -8 12 -82 13 -115 3z"/>
</g>
</svg>
