<?xml version="1.0" encoding="utf-8"?>
<!-- Generator: Adobe Illustrator 23.0.1, SVG Export Plug-In . SVG Version: 6.00 Build 0)  -->
<svg version="1.1" id="Layer_2" xmlns="http://www.w3.org/2000/svg" xmlns:xlink="http://www.w3.org/1999/xlink" x="0px" y="0px"
	 width="385.5px" height="176px" viewBox="0 0 385.5 176" style="enable-background:new 0 0 385.5 176;" xml:space="preserve">
<style type="text/css">
	.st0{fill:#C8102E;}
</style>
<g>
	<g>
		<path d="M230.9,67l21.3,27.4H237l-19.5-25.6v25.6h-12.8V42.1h12.8v23.3l18.9-23.3h15.2L230.9,67z"/>
		<polygon points="270.8,83.6 295.7,83.6 295.7,94.3 258,94.3 258,42.1 294.5,42.1 294.5,52.9 270.8,52.9 270.8,62.4 292.2,62.4 
			292.2,72.9 270.8,72.9 		"/>
		<polygon points="300.9,42.1 300.9,52.9 316.8,52.9 316.8,94.3 329.6,94.3 329.6,52.9 345.4,52.9 345.4,42.1 		"/>
		<polygon points="300.9,42.1 300.9,52.9 316.8,52.9 316.8,94.3 329.6,94.3 329.6,52.9 345.4,52.9 345.4,42.1 		"/>
		<g>
			<path d="M70.7,74.3l15.7,20.1H71.6L52.9,69.2v25.2H40.1V42.1h23.5c11.2,0,19,6.9,19,16.9C82.6,66.2,78,72.6,70.7,74.3z
				 M69.9,59.2c0-3.9-3.1-6.6-7.5-6.6H53v13.2h9.4C66.9,65.9,69.9,63.2,69.9,59.2z"/>
		</g>
		<g>
			<path class="st0" d="M117.3,52.5c9.4,0,16.8,7.2,16.8,17.1c0,7.8-3.9,12.5-9.1,16l7.2,9.6c8.9-6.1,14.5-14.5,14.5-25.6
				c0-16.4-13-28.3-29.4-28.3S88,53.2,88,69.6c0,11.1,5.6,19.5,14.5,25.6l7.2-9.6c-5.2-3.5-9.1-8.2-9.1-16
				C100.6,59.7,107.9,52.5,117.3,52.5z"/>
			<path d="M191.7,79.9l6.7,9.1c-4.9,4.3-10.9,6.2-18.4,6.2c-14.7,0-27.4-10.7-27.4-27.1c0-16,12.6-26.9,27.4-26.9
				c7.1,0,13.5,1.8,18.3,5.7l-7,9.5c-2.8-2.2-6.2-3.9-11.3-3.9c-8.1,0-14.6,6.4-14.6,15.9c0,9.3,6.5,15.6,14.8,15.6
				C185.3,84,188.8,82.1,191.7,79.9z"/>
		</g>
	</g>
	<g>
		<path d="M39.8,107.9h3.8v26.5h-3.8V107.9z"/>
		<path d="M66.9,123v11.3h-3.5v-10.6c0-3.4-1.6-5.4-4.7-5.4c-3.1,0-5.2,2.3-5.2,5.5v10.5h-3.5v-18.8h3.5v2.7c1.2-2,3.5-3.1,6.3-3.1
			C64.3,115.2,66.9,118,66.9,123z"/>
		<path d="M89.5,123v11.3H86v-10.6c0-3.4-1.6-5.4-4.7-5.4c-3.1,0-5.2,2.3-5.2,5.5v10.5h-3.5v-18.8h3.5v2.7c1.2-2,3.5-3.1,6.3-3.1
			C86.9,115.2,89.5,118,89.5,123z"/>
		<path d="M93.7,125c0-5.7,4.1-9.8,9.9-9.8c5.9,0,9.9,4.1,9.9,9.8c0,5.7-4,9.8-9.9,9.8C97.9,134.8,93.7,130.7,93.7,125z M109.9,125
			c0-3.8-2.6-6.5-6.3-6.5c-3.7,0-6.2,2.6-6.2,6.5c0,3.9,2.6,6.5,6.2,6.5C107.4,131.4,109.9,128.8,109.9,125z"/>
		<path d="M133.5,115.6l-8.2,18.8h-2.4l-8.2-18.8h3.9l5.6,13.8l5.7-13.8H133.5z"/>
		<path d="M153.8,115.6v18.8h-3.5v-3.3c-1.5,2.6-4,3.7-6.8,3.7c-5.3,0-9.1-4.1-9.1-9.7c0-5.7,3.8-9.8,9.1-9.8c2.9,0,5.5,1.2,6.8,3.6
			v-3.2H153.8z M150.4,125c0-3.7-2.7-6.5-6.3-6.5c-3.6,0-6.1,2.6-6.1,6.5c0,3.8,2.4,6.5,6,6.5C147.7,131.5,150.4,128.7,150.4,125z"
			/>
		<path d="M160.4,127.2v-8.5h-3.2v-3.1h3.2v-5.4l3.5-1.2v6.6h5.3v3.1h-5.3v8.1c0,3.3,1.3,4.7,4.4,4.7h0.5l-0.6,3.2h-0.1
			C162.9,134.7,160.4,132.4,160.4,127.2z"/>
		<path d="M172.6,109.5c0-1.3,1-2.4,2.4-2.4c1.3,0,2.3,1,2.3,2.4s-1,2.4-2.3,2.4C173.6,111.9,172.6,110.9,172.6,109.5z M173.2,115.6
			h3.5v18.8h-3.5V115.6z"/>
		<path d="M181.1,125c0-5.7,4.1-9.8,9.9-9.8c5.9,0,9.9,4.1,9.9,9.8c0,5.7-4,9.8-9.9,9.8C185.2,134.8,181.1,130.7,181.1,125z
			 M197.2,125c0-3.8-2.6-6.5-6.3-6.5c-3.7,0-6.2,2.6-6.2,6.5c0,3.9,2.6,6.5,6.2,6.5C194.7,131.4,197.2,128.8,197.2,125z"/>
		<path d="M222.2,123v11.3h-3.5v-10.6c0-3.4-1.6-5.4-4.7-5.4s-5.2,2.3-5.2,5.5v10.5h-3.5v-18.8h3.5v2.7c1.2-2,3.5-3.1,6.3-3.1
			C219.6,115.2,222.2,118,222.2,123z"/>
		<path d="M235.2,131.7l2-3c1.8,1.6,4.3,2.6,7.1,2.6c3.1,0,4.9-1.4,4.9-4c0-2.6-2.1-3.5-5.7-4.7c-3.4-1.2-7.3-2.8-7.3-7.5
			c0-4.6,3.5-7.5,8.7-7.5c3,0,5.3,0.9,7.3,2.2l-1.8,3.1c-1.5-1-3.4-1.8-5.5-1.8c-3,0-4.9,1.4-4.9,3.9c0,2.5,2.1,3.4,5.5,4.5
			c3.9,1.4,7.5,2.7,7.5,7.6c0,5-3.7,7.8-9,7.8C240.4,134.8,237.3,133.5,235.2,131.7z"/>
		<path d="M258.9,127.2v-8.5h-3.2v-3.1h3.2v-5.4l3.5-1.2v6.6h5.3v3.1h-5.3v8.1c0,3.3,1.3,4.7,4.4,4.7h0.5l-0.6,3.2h-0.1
			C261.4,134.7,258.9,132.4,258.9,127.2z"/>
		<path d="M288.4,115.6v18.8h-3.5v-2.8c-1.3,2-3.5,3.2-6.3,3.2c-4.5,0-7.2-2.6-7.2-7.8v-11.4h3.5v10.5c0,3.6,1.6,5.5,4.5,5.5
			c3.1,0,5.4-2.3,5.4-5.6v-10.4H288.4z"/>
		<path d="M312.2,106.3v28.1h-3.5v-3.3c-1.5,2.6-4,3.7-6.8,3.7c-5.3,0-9.1-4.1-9.1-9.7c0-5.7,3.8-9.8,9.1-9.8c2.9,0,5.5,1.2,6.8,3.6
			v-12.5H312.2z M308.9,125c0-3.7-2.7-6.5-6.3-6.5c-3.6,0-6.1,2.6-6.1,6.5c0,3.8,2.4,6.5,6,6.5C306.2,131.5,308.9,128.7,308.9,125z"
			/>
		<path d="M317.4,109.5c0-1.3,1-2.4,2.4-2.4s2.3,1,2.3,2.4s-1,2.4-2.3,2.4S317.4,110.9,317.4,109.5z M318,115.6h3.5v18.8H318V115.6z
			"/>
		<path d="M325.9,125c0-5.7,4.1-9.8,9.9-9.8c5.9,0,9.9,4.1,9.9,9.8c0,5.7-4,9.8-9.9,9.8C330,134.8,325.9,130.7,325.9,125z
			 M342.1,125c0-3.8-2.6-6.5-6.3-6.5c-3.7,0-6.2,2.6-6.2,6.5c0,3.9,2.6,6.5,6.2,6.5C339.5,131.4,342.1,128.8,342.1,125z"/>
	</g>
</g>
</svg>
